<svg width="40" height="40" viewBox="0 0 40 40" fill="none" xmlns="http://www.w3.org/2000/svg">
  <defs>
    <linearGradient id="mainGrad" x1="0%" y1="0%" x2="100%" y2="100%">
      <stop offset="0%" style="stop-color:#e5e7eb;stop-opacity:1" />
      <stop offset="50%" style="stop-color:#d1d5db;stop-opacity:1" />
      <stop offset="100%" style="stop-color:#9ca3af;stop-opacity:1" />
    </linearGradient>
    <linearGradient id="sideGrad" x1="0%" y1="0%" x2="100%" y2="100%">
      <stop offset="0%" style="stop-color:#f9fafb;stop-opacity:1" />
      <stop offset="100%" style="stop-color:#e5e7eb;stop-opacity:1" />
    </linearGradient>
    <linearGradient id="topGrad" x1="0%" y1="0%" x2="0%" y2="100%">
      <stop offset="0%" style="stop-color:#f3f4f6;stop-opacity:1" />
      <stop offset="100%" style="stop-color:#d1d5db;stop-opacity:1" />
    </linearGradient>
  </defs>
  
  <!-- Main front face of D -->
  <path d="M8 10 L8 30 L20 30 C26 30 30 26 30 20 C30 14 26 10 20 10 L8 10 Z" fill="url(#mainGrad)" stroke="#9ca3af" stroke-width="0.5"/>
  
  <!-- Top face (3D effect) -->
  <path d="M8 10 L12 6 L24 6 C30 6 34 10 34 16 C34 22 30 26 24 26 L20 30 C26 30 30 26 30 20 C30 14 26 10 20 10 L8 10 Z" fill="url(#topGrad)" stroke="#d1d5db" stroke-width="0.5"/>
  
  <!-- Right side face (3D effect) -->
  <path d="M30 20 C30 26 26 30 20 30 L24 26 C30 26 34 22 34 16 C34 10 30 6 24 6 L34 16 C34 18 32 20 30 20 Z" fill="url(#sideGrad)" stroke="#d1d5db" stroke-width="0.5"/>
  
  <!-- Inner cutout -->
  <ellipse cx="20" cy="20" rx="8" ry="8" fill="#374151"/>
  <ellipse cx="19" cy="19" rx="6" ry="6" fill="#1f2937"/>
</svg>
